<svg width="18" height="18" viewBox="0 0 18 18" fill="none" xmlns="http://www.w3.org/2000/svg">
<g clip-path="url(#clip0_10_38)">
<path d="M16.5 8.31001V9.00001C16.4991 10.6173 15.9754 12.191 15.007 13.4864C14.0386 14.7817 12.6775 15.7294 11.1265 16.1879C9.57557 16.6465 7.91794 16.5914 6.40085 16.0309C4.88375 15.4705 3.58848 14.4346 2.70821 13.0778C1.82794 11.721 1.40984 10.1161 1.51625 8.50224C1.62266 6.88843 2.2479 5.35225 3.2987 4.12281C4.34951 2.89337 5.76958 2.03654 7.34713 1.68011C8.92469 1.32369 10.5752 1.48676 12.0525 2.14501" stroke="#55AAD5" stroke-width="2" stroke-linecap="round" stroke-linejoin="round"/>
<path d="M16.5 3L9 10.5075L6.75 8.2575" stroke="#55AAD5" stroke-width="2" stroke-linecap="round" stroke-linejoin="round"/>
</g>
<defs>
<clipPath id="clip0_10_38">
<rect width="18" height="18" fill="white"/>
</clipPath>
</defs>
</svg>
