<svg width="27" height="25" viewBox="0 0 27 25" fill="none" xmlns="http://www.w3.org/2000/svg">
<path d="M14.3009 1.06333C14.1523 0.783865 13.8457 0.606934 13.51 0.606934C13.1743 0.606934 12.8677 0.783865 12.7191 1.06333L9.10839 7.8548L1.03527 8.94308C0.703016 8.98787 0.426969 9.20388 0.323205 9.50028C0.219441 9.79669 0.305958 10.1221 0.546376 10.3396L6.38831 15.6257L5.00884 23.0907C4.95208 23.3978 5.0881 23.7083 5.35972 23.8915C5.63133 24.0746 5.99143 24.0988 6.28859 23.9538L13.51 20.4293L20.7314 23.9538C21.0286 24.0988 21.3887 24.0746 21.6603 23.8915C21.9319 23.7083 22.0679 23.3978 22.0112 23.0907L20.6317 15.6257L26.4736 10.3396C26.714 10.1221 26.8006 9.79669 26.6968 9.50028C26.593 9.20388 26.317 8.98787 25.9847 8.94308L17.9116 7.8548L14.3009 1.06333Z" fill="#FE7443"/>
</svg>
