<svg width="19" height="13" viewBox="0 0 19 13" fill="none" xmlns="http://www.w3.org/2000/svg">
<path d="M17.8622 5.62769L12.5866 0.213975C12.4447 0.0748442 12.2551 -0.00194736 12.0585 3.75425e-05C11.8619 0.00202244 11.6738 0.0826261 11.5346 0.224595C11.3953 0.366563 11.316 0.558615 11.3135 0.75964C11.3111 0.960664 11.3857 1.15469 11.5214 1.30018L15.4865 5.36839H0.798464C0.695968 5.36197 0.593271 5.37706 0.496697 5.41274C0.400122 5.44843 0.311713 5.50394 0.236914 5.57587C0.162114 5.6478 0.102507 5.73462 0.0617633 5.83099C0.0210191 5.92736 0 6.03123 0 6.13622C0 6.24121 0.0210191 6.34508 0.0617633 6.44145C0.102507 6.53782 0.162114 6.62464 0.236914 6.69657C0.311713 6.7685 0.400122 6.82401 0.496697 6.8597C0.593271 6.89538 0.695968 6.91047 0.798464 6.90405H15.5457L11.5242 10.9694C11.4477 11.0389 11.3859 11.1237 11.3425 11.2185C11.2992 11.3133 11.2752 11.4161 11.272 11.5207C11.2689 11.6253 11.2867 11.7295 11.3243 11.8268C11.3618 11.9242 11.4185 12.0127 11.4907 12.0868C11.5628 12.161 11.6491 12.2194 11.7441 12.2584C11.8391 12.2973 11.9409 12.316 12.0432 12.3134C12.1456 12.3107 12.2463 12.2867 12.3392 12.2429C12.4322 12.1991 12.5154 12.1363 12.5838 12.0585L17.8593 6.71678C17.9294 6.64532 17.985 6.56044 18.0229 6.467C18.0608 6.37356 18.0803 6.2734 18.0803 6.17223C18.0803 6.07107 18.0608 5.97091 18.0229 5.87747C17.985 5.78403 17.9294 5.69915 17.8593 5.62769H17.8622Z" fill="#0077B7" fill-opacity="0.64"/>
</svg>
